<svg xmlns="http://www.w3.org/2000/svg" viewBox="0 0 1200 630" width="1200" height="630">
  <defs>
    <linearGradient id="bg" x1="0" y1="0" x2="1" y2="1">
      <stop offset="0" stop-color="#0c0c0f"/>
      <stop offset="1" stop-color="#131318"/>
    </linearGradient>
    <radialGradient id="glow" cx="0.82" cy="0.2" r="0.6">
      <stop offset="0" stop-color="#c8a44e" stop-opacity="0.18"/>
      <stop offset="1" stop-color="#c8a44e" stop-opacity="0"/>
    </radialGradient>
    <filter id="noise">
      <feTurbulence type="fractalNoise" baseFrequency="0.9" numOctaves="3" stitchTiles="stitch"/>
      <feColorMatrix values="0 0 0 0 1  0 0 0 0 1  0 0 0 0 1  0 0 0 0.04 0"/>
    </filter>
  </defs>

  <rect width="1200" height="630" fill="url(#bg)"/>
  <rect width="1200" height="630" fill="url(#glow)"/>
  <rect width="1200" height="630" filter="url(#noise)" opacity="0.5"/>

  <!-- Left accent rule -->
  <rect x="80" y="80" width="2" height="470" fill="#2a2a35"/>
  <rect x="80" y="80" width="2" height="90" fill="#c8a44e"/>

  <!-- ORGA diagram motif, faint in corner -->
  <g transform="translate(880,120)" stroke="#c8a44e" stroke-opacity="0.35" fill="none" stroke-width="1.2" font-family="'JetBrains Mono', monospace" font-size="13">
    <circle cx="0" cy="0" r="28"/>
    <circle cx="110" cy="0" r="28"/>
    <circle cx="220" cy="0" r="28"/>
    <circle cx="55" cy="95" r="28"/>
    <path d="M28 0 L82 0 M138 0 L192 0 M210 22 L75 85 M-22 22 L35 85" stroke-dasharray="3 3"/>
    <text x="0" y="4" text-anchor="middle" fill="#c8a44e" fill-opacity="0.75">O</text>
    <text x="110" y="4" text-anchor="middle" fill="#c8a44e" fill-opacity="0.75">R</text>
    <text x="220" y="4" text-anchor="middle" fill="#c8a44e" fill-opacity="0.75">G</text>
    <text x="55" y="99" text-anchor="middle" fill="#c8a44e" fill-opacity="0.75">A</text>
  </g>

  <!-- Eyebrow -->
  <text x="120" y="125" font-family="'JetBrains Mono', 'Consolas', monospace" font-size="18" font-weight="600" letter-spacing="4" fill="#c8a44e">SPECIFICATION · v1.0.0</text>

  <!-- Title -->
  <text x="120" y="235" font-family="'DM Serif Display', Georgia, serif" font-size="92" fill="#e8e6e1">Open Agent</text>
  <text x="120" y="330" font-family="'DM Serif Display', Georgia, serif" font-size="92" fill="#e8e6e1">Trust Stack</text>

  <!-- Subtitle -->
  <text x="120" y="410" font-family="'Source Serif 4', Georgia, serif" font-style="italic" font-size="30" fill="#9a9790">A System Specification for</text>
  <text x="120" y="450" font-family="'Source Serif 4', Georgia, serif" font-style="italic" font-size="30" fill="#9a9790">Zero-Trust AI Agent Execution</text>

  <!-- Footer rule -->
  <rect x="120" y="525" width="80" height="2" fill="#c8a44e"/>
  <text x="120" y="560" font-family="'JetBrains Mono', monospace" font-size="15" letter-spacing="2" fill="#6b6860">OBSERVE · REASON · GATE · ACT</text>
  <text x="1080" y="560" text-anchor="end" font-family="'JetBrains Mono', monospace" font-size="15" letter-spacing="1.5" fill="#6b6860">openagenttruststack.org</text>
</svg>
